<?xml version="1.0" encoding="UTF-8"?>
<svg id="icon_only" xmlns="http://www.w3.org/2000/svg" viewBox="0 0 1080 1080">
  <defs>
    <style>
      .cls-1 {
        fill: #fff;
      }

      .cls-2 {
        stroke-width: 9.25px;
      }

      .cls-2, .cls-3, .cls-4, .cls-5 {
        fill: none;
      }

      .cls-2, .cls-3, .cls-4, .cls-5, .cls-6, .cls-7, .cls-8, .cls-9, .cls-10, .cls-11 {
        stroke: #000;
        stroke-miterlimit: 10;
      }

      .cls-3 {
        stroke-width: 9.24px;
      }

      .cls-4 {
        stroke-width: 9.22px;
      }

      .cls-5 {
        stroke-width: 9.22px;
      }

      .cls-6 {
        stroke-width: 21.14px;
      }

      .cls-7 {
        stroke-width: 21.14px;
      }

      .cls-8 {
        stroke-width: 20.99px;
      }

      .cls-9 {
        stroke-width: 21.01px;
      }

      .cls-10 {
        stroke-width: 9.62px;
      }

      .cls-11 {
        fill: #c797c9;
        stroke-width: 11.06px;
      }
    </style>
  </defs>
  <g id="Layer_9" transform="translate(-620, 0)">
    <polygon class="cls-1" points="932.17 728 1142.17 728 1138.83 916.33 1295.5 918 1620.5 724.67 1620.5 178 1020.5 178 932.17 229.67 932.17 728"/>
  </g>
  <g id="black" transform="translate(-620, 0)">
    <g id="icon">
      <path class="cls-4" d="M1023.64,181.23h594.7c.67,0,.91.89.33,1.23l-320.73,187.39h0l-156.64,2.3v544.75l157.52,1.09"/>
      <polyline class="cls-3" points="1144.86 730.41 935.17 730.24 935.17 233.8 1022.95 181.23 1624.53 181.23"/>
      <path class="cls-2" d="M1297.98,367.52v516.9c0,.29-.31,33.71,0,33.58l322.86-192.41-1.03-548.04"/>
      <polyline class="cls-5" points="1138.84 372.01 1375.35 235.88 935.52 234.7"/>
      <line class="cls-10" x1="1588.84" y1="231.31" x2="1588.59" y2="745.26"/>
      <line class="cls-10" x1="1530.41" y1="235.62" x2="1531.45" y2="780.28"/>
      <line class="cls-10" x1="1476.86" y1="296.34" x2="1477.99" y2="813.46"/>
      <line class="cls-10" x1="1408.6" y1="327.43" x2="1407.95" y2="854.01"/>
      <polygon class="cls-9" points="1595.52 579.71 1580.29 588.59 1580.29 218.91 1595.52 210.03 1595.52 579.71"/>
      <polygon class="cls-7" points="1483.36 646.04 1467.99 654.94 1467.99 284.14 1483.36 275.24 1483.36 646.04"/>
      <polygon class="cls-6" points="1414.1 688.44 1398.73 697.34 1398.73 326.53 1414.1 317.63 1414.1 688.44"/>
      <line class="cls-10" x1="1336.74" y1="347.96" x2="1336.74" y2="896.4"/>
      <polygon class="cls-8" points="1342.24 730.96 1326.87 739.73 1325.93 370.64 1341.3 361.87 1342.24 730.96"/>
      <line class="cls-11" x1="956.21" y1="450.67" x2="956.21" y2="512.69"/>
      <line class="cls-11" x1="990.04" y1="433.76" x2="990.04" y2="529.6"/>
      <line class="cls-11" x1="973.12" y1="461.95" x2="973.12" y2="498.59"/>
      <line class="cls-11" x1="1006.95" y1="354.82" x2="1006.95" y2="608.53"/>
      <line class="cls-11" x1="1023.86" y1="405.57" x2="1023.86" y2="557.79"/>
      <line class="cls-11" x1="1040.78" y1="428.12" x2="1040.78" y2="535.24"/>
      <line class="cls-11" x1="1057.69" y1="405.57" x2="1057.69" y2="557.79"/>
      <line class="cls-11" x1="1074.6" y1="371.74" x2="1074.6" y2="591.62"/>
      <line class="cls-11" x1="1091.51" y1="450.67" x2="1091.51" y2="512.69"/>
      <line class="cls-11" x1="1108.43" y1="433.76" x2="1108.43" y2="529.6"/>
      <line class="cls-11" x1="1125.34" y1="309.72" x2="1125.34" y2="650.82"/>
      <line class="cls-11" x1="1204.28" y1="299.53" x2="1204.28" y2="336.17"/>
      <line class="cls-11" x1="1182.16" y1="334.22" x2="1182.16" y2="347.12"/>
    </g>
  </g>
</svg>